<?xml version="1.0" encoding="UTF-8" standalone="no"?>
<svg width="289px" height="189px" viewBox="0 0 289 189" version="1.1" xmlns="http://www.w3.org/2000/svg" xmlns:xlink="http://www.w3.org/1999/xlink" xmlns:sketch="http://www.bohemiancoding.com/sketch/ns">
    <!-- Generator: Sketch 3.5.2 (25235) - http://www.bohemiancoding.com/sketch -->
    <title>Page 1</title>
    <desc>Created with Sketch.</desc>
    <defs>
        <path id="path-1" d="M0,0.0839382353 L288.570676,0.0839382353 L288.570676,189 L0,189"></path>
        <path id="path-3" d="M0,0.0839382353 L288.570676,0.0839382353 L288.570676,189 L0,189"></path>
    </defs>
    <g id="Sizet" stroke="none" stroke-width="1" fill="none" fill-rule="evenodd" sketch:type="MSPage">
        <g id="iPhone-6" sketch:type="MSArtboardGroup" transform="translate(-43.000000, -1718.000000)">
            <g id="Page-1" sketch:type="MSLayerGroup" transform="translate(43.000000, 1718.000000)">
                <path d="M83.0969663,42.2334953 C83.0969663,65.5121806 64.616001,84.3827188 41.8184114,84.3827188 C19.0208218,84.3827188 0.539856455,65.5121806 0.539856455,42.2334953 C0.539856455,18.95481 19.0208218,0.0842717647 41.8184114,0.0842717647 C64.616001,0.0842717647 83.0969663,18.95481 83.0969663,42.2334953" id="Fill-1" fill="#F7C91C" sketch:type="MSShapeGroup"></path>
                <path d="M54.8892299,65.6038456 L28.5323185,65.6038456 C24.857174,65.6038456 21.8502376,62.6020809 21.8502376,58.9332574 L21.8502376,38.5840721 C21.8502376,34.9152485 24.857174,31.9134838 28.5323185,31.9134838 L54.8892299,31.9134838 C58.5643744,31.9134838 61.5713108,34.9152485 61.5713108,38.5840721 L61.5713108,58.9332574 C61.5713108,62.6020809 58.5643744,65.6038456 54.8892299,65.6038456" id="Fill-3" fill="#FFFFFF" sketch:type="MSShapeGroup"></path>
                <path d="M56.8482489,28.4850794 L26.5734108,28.4850794 C23.975195,28.4850794 21.8502933,26.3632765 21.8502933,23.7700853 C21.8502933,21.1768941 23.975195,19.0550912 26.5734108,19.0550912 L56.8482489,19.0550912 C59.4459079,19.0550912 61.5713665,21.1768941 61.5713665,23.7700853 C61.5713665,26.3632765 59.4459079,28.4850794 56.8482489,28.4850794" id="Fill-5" fill="#FFFFFF" sketch:type="MSShapeGroup"></path>
                <path d="M49.9614179,58.5018371 L33.6092522,58.5018371 C29.9341077,58.5018371 26.9271713,55.5000724 26.9271713,51.8312488 L26.9271713,46.8366459 C26.9271713,43.1678224 29.9341077,40.1660576 33.6092522,40.1660576 L49.9614179,40.1660576 C53.6365624,40.1660576 56.6434988,43.1678224 56.6434988,46.8366459 L56.6434988,51.8312488 C56.6434988,55.5000724 53.6365624,58.5018371 49.9614179,58.5018371" id="Fill-7" fill="#F7C91C" sketch:type="MSShapeGroup"></path>
                <path d="M29.8391108,36.1622594 C29.8391108,36.9443859 29.2037563,37.5786476 28.4202823,37.5786476 C27.6368083,37.5786476 27.0020106,36.9443859 27.0020106,36.1622594 C27.0020106,35.3801329 27.6368083,34.7458712 28.4202823,34.7458712 C29.2037563,34.7458712 29.8391108,35.3801329 29.8391108,36.1622594" id="Fill-9" fill="#F7C91C" sketch:type="MSShapeGroup"></path>
                <path d="M36.1109119,36.1622594 C36.1109119,36.9443859 35.4755574,37.5786476 34.6920834,37.5786476 C33.9086094,37.5786476 33.2738118,36.9443859 33.2738118,36.1622594 C33.2738118,35.3801329 33.9086094,34.7458712 34.6920834,34.7458712 C35.4755574,34.7458712 36.1109119,35.3801329 36.1109119,36.1622594" id="Fill-11" fill="#F7C91C" sketch:type="MSShapeGroup"></path>
                <path d="M50.6703867,36.1622594 C50.6703867,36.9443859 50.0350322,37.5786476 49.2515582,37.5786476 C48.4680842,37.5786476 47.8332865,36.9443859 47.8332865,36.1622594 C47.8332865,35.3801329 48.4680842,34.7458712 49.2515582,34.7458712 C50.0350322,34.7458712 50.6703867,35.3801329 50.6703867,36.1622594" id="Fill-13" fill="#F7C91C" sketch:type="MSShapeGroup"></path>
                <path d="M56.7181711,36.1622594 C56.7181711,36.9443859 56.0828166,37.5786476 55.2993426,37.5786476 C54.5158686,37.5786476 53.8810709,36.9443859 53.8810709,36.1622594 C53.8810709,35.3801329 54.5158686,34.7458712 55.2993426,34.7458712 C56.0828166,34.7458712 56.7181711,35.3801329 56.7181711,36.1622594" id="Fill-15" fill="#F7C91C" sketch:type="MSShapeGroup"></path>
                <path d="M185.833961,42.2334953 C185.833961,65.5121806 167.352995,84.3827188 144.555406,84.3827188 C121.757816,84.3827188 103.276851,65.5121806 103.276851,42.2334953 C103.276851,18.95481 121.757816,0.0842717647 144.555406,0.0842717647 C167.352995,0.0842717647 185.833961,18.95481 185.833961,42.2334953" id="Fill-17" fill="#F7C91C" sketch:type="MSShapeGroup"></path>
                <path d="M157.62628,65.6038456 L131.269368,65.6038456 C127.594224,65.6038456 124.587287,62.6020809 124.587287,58.9332574 L124.587287,38.5840721 C124.587287,34.9152485 127.594224,31.9134838 131.269368,31.9134838 L157.62628,31.9134838 C161.301424,31.9134838 164.308361,34.9152485 164.308361,38.5840721 L164.308361,58.9332574 C164.308361,62.6020809 161.301424,65.6038456 157.62628,65.6038456" id="Fill-19" fill="#FFFFFF" sketch:type="MSShapeGroup"></path>
                <path d="M162.081,28.4850794 L126.814648,28.4850794 C125.5896,28.4850794 124.587287,27.4844912 124.587287,26.26155 L124.587287,23.50215 C124.587287,22.2792088 125.5896,21.2786206 126.814648,21.2786206 L162.081,21.2786206 C163.306049,21.2786206 164.308361,22.2792088 164.308361,23.50215 L164.308361,26.26155 C164.308361,27.4844912 163.306049,28.4850794 162.081,28.4850794" id="Fill-21" fill="#FFFFFF" sketch:type="MSShapeGroup"></path>
                <path d="M152.698412,58.5018371 L136.346246,58.5018371 C132.671102,58.5018371 129.664166,55.5000724 129.664166,51.8312488 L129.664166,46.8366459 C129.664166,43.1678224 132.671102,40.1660576 136.346246,40.1660576 L152.698412,40.1660576 C156.373557,40.1660576 159.380493,43.1678224 159.380493,46.8366459 L159.380493,51.8312488 C159.380493,55.5000724 156.373557,58.5018371 152.698412,58.5018371" id="Fill-23" fill="#F7C91C" sketch:type="MSShapeGroup"></path>
                <path d="M132.576105,36.1622594 C132.576105,36.9443859 131.94075,37.5786476 131.157276,37.5786476 C130.373803,37.5786476 129.739005,36.9443859 129.739005,36.1622594 C129.739005,35.3801329 130.373803,34.7458712 131.157276,34.7458712 C131.94075,34.7458712 132.576105,35.3801329 132.576105,36.1622594" id="Fill-25" fill="#F7C91C" sketch:type="MSShapeGroup"></path>
                <path d="M138.847906,36.1622594 C138.847906,36.9443859 138.212552,37.5786476 137.429078,37.5786476 C136.645604,37.5786476 136.010806,36.9443859 136.010806,36.1622594 C136.010806,35.3801329 136.645604,34.7458712 137.429078,34.7458712 C138.212552,34.7458712 138.847906,35.3801329 138.847906,36.1622594" id="Fill-27" fill="#F7C91C" sketch:type="MSShapeGroup"></path>
                <path d="M153.407381,36.1622594 C153.407381,36.9443859 152.772026,37.5786476 151.988552,37.5786476 C151.205078,37.5786476 150.570281,36.9443859 150.570281,36.1622594 C150.570281,35.3801329 151.205078,34.7458712 151.988552,34.7458712 C152.772026,34.7458712 153.407381,35.3801329 153.407381,36.1622594" id="Fill-29" fill="#F7C91C" sketch:type="MSShapeGroup"></path>
                <path d="M159.455165,36.1622594 C159.455165,36.9443859 158.819811,37.5786476 158.036337,37.5786476 C157.252863,37.5786476 156.618065,36.9443859 156.618065,36.1622594 C156.618065,35.3801329 157.252863,34.7458712 158.036337,34.7458712 C158.819811,34.7458712 159.455165,35.3801329 159.455165,36.1622594" id="Fill-31" fill="#F7C91C" sketch:type="MSShapeGroup"></path>
                <path d="M132.661246,69.3653903 L132.661246,69.3653903 C130.976805,69.3653903 129.598625,67.9895815 129.598625,66.3080374 L129.598625,65.9372638 C129.598625,64.2557197 130.976805,62.8799109 132.661246,62.8799109 C134.345687,62.8799109 135.723866,64.2557197 135.723866,65.9372638 L135.723866,66.3080374 C135.723866,67.9895815 134.345687,69.3653903 132.661246,69.3653903" id="Fill-33" fill="#FFFFFF" sketch:type="MSShapeGroup"></path>
                <path d="M157.731634,69.3653903 L157.731634,69.3653903 C156.047193,69.3653903 154.669013,67.9895815 154.669013,66.3080374 L154.669013,65.9372638 C154.669013,64.2557197 156.047193,62.8799109 157.731634,62.8799109 C159.416075,62.8799109 160.794254,64.2557197 160.794254,65.9372638 L160.794254,66.3080374 C160.794254,67.9895815 159.416075,69.3653903 157.731634,69.3653903" id="Fill-35" fill="#FFFFFF" sketch:type="MSShapeGroup"></path>
                <path d="M134.693712,52.533495 L134.693712,52.533495 C134.415849,52.1060215 134.538911,51.5295715 134.967121,51.2521862 L145.06987,44.7111185 C145.49808,44.4337332 146.075523,44.5565832 146.353387,44.9840568 C146.63125,45.4115303 146.508188,45.9879803 146.079978,46.2653656 L135.977229,52.8064332 C135.549018,53.0838185 134.971575,52.9609685 134.693712,52.533495" id="Fill-37" fill="#FFFFFF" sketch:type="MSShapeGroup"></path>
                <path d="M140.672114,53.8305909 L140.672114,53.8305909 C140.394251,53.4031174 140.517313,52.8266674 140.945523,52.5492821 L151.048272,46.0082144 C151.476482,45.7308291 152.053925,45.8536791 152.331789,46.2811526 C152.609652,46.7086262 152.48659,47.2850762 152.05838,47.5624615 L141.955631,54.1035291 C141.527421,54.3809144 140.949977,54.2580644 140.672114,53.8305909" id="Fill-39" fill="#FFFFFF" sketch:type="MSShapeGroup"></path>
                <g id="Group-43">
                    <mask id="mask-2" sketch:name="Clip 42" fill="white">
                        <use xlink:href="#path-1"></use>
                    </mask>
                    <g id="Clip-42"></g>
                    <path d="M288.57101,42.2334953 C288.57101,65.5121806 270.090045,84.3827188 247.292455,84.3827188 C224.494866,84.3827188 206.013901,65.5121806 206.013901,42.2334953 C206.013901,18.95481 224.494866,0.0842717647 247.292455,0.0842717647 C270.090045,0.0842717647 288.57101,18.95481 288.57101,42.2334953" id="Fill-41" fill="#F7C91C" sketch:type="MSShapeGroup" mask="url(#mask-2)"></path>
                </g>
                <path d="M264.41707,64.4259865 L229.952567,64.4259865 C228.50701,64.4259865 227.324282,63.2452924 227.324282,61.8022218 L227.324282,28.4225982 C227.324282,26.9795276 228.50701,25.7988335 229.952567,25.7988335 L264.41707,25.7988335 C265.862627,25.7988335 267.045355,26.9795276 267.045355,28.4225982 L267.045355,61.8022218 C267.045355,63.2452924 265.862627,64.4259865 264.41707,64.4259865" id="Fill-44" fill="#FFFFFF" sketch:type="MSShapeGroup"></path>
                <path d="M265.747138,24.5012929 L228.622053,24.5012929 C227.908184,24.5012929 227.324059,23.9181724 227.324059,23.2055312 L227.324059,18.5905959 C227.324059,17.8779547 227.908184,17.2948341 228.622053,17.2948341 L265.747138,17.2948341 C266.461007,17.2948341 267.045132,17.8779547 267.045132,18.5905959 L267.045132,23.2055312 C267.045132,23.9181724 266.461007,24.5012929 265.747138,24.5012929" id="Fill-46" fill="#FFFFFF" sketch:type="MSShapeGroup"></path>
                <path d="M266.488515,68.0140959 L227.988592,68.0140959 C227.68233,68.0140959 227.431752,67.7639488 227.431752,67.4582135 L227.431752,65.7522106 C227.431752,65.4464753 227.68233,65.1963282 227.988592,65.1963282 L266.488515,65.1963282 C266.794777,65.1963282 267.045355,65.4464753 267.045355,65.7522106 L267.045355,67.4582135 C267.045355,67.7639488 266.794777,68.0140959 266.488515,68.0140959" id="Fill-48" fill="#FFFFFF" sketch:type="MSShapeGroup"></path>
                <path d="M257.588094,58.7991229 L236.781208,58.7991229 C234.331112,58.7991229 232.326487,56.7979465 232.326487,54.3520641 L232.326487,39.1775876 C232.326487,36.7317053 234.331112,34.7305288 236.781208,34.7305288 L257.588094,34.7305288 C260.038191,34.7305288 262.042815,36.7317053 262.042815,39.1775876 L262.042815,54.3520641 C262.042815,56.7979465 260.038191,58.7991229 257.588094,58.7991229" id="Fill-50" fill="#F7C91C" sketch:type="MSShapeGroup"></path>
                <path d="M235.313099,30.0475535 C235.313099,30.82968 234.677745,31.4639418 233.894271,31.4639418 C233.110797,31.4639418 232.475999,30.82968 232.475999,30.0475535 C232.475999,29.2654271 233.110797,28.6311653 233.894271,28.6311653 C234.677745,28.6311653 235.313099,29.2654271 235.313099,30.0475535" id="Fill-52" fill="#F7C91C" sketch:type="MSShapeGroup"></path>
                <path d="M241.5849,30.0475535 C241.5849,30.82968 240.949546,31.4639418 240.166072,31.4639418 C239.382598,31.4639418 238.7478,30.82968 238.7478,30.0475535 C238.7478,29.2654271 239.382598,28.6311653 240.166072,28.6311653 C240.949546,28.6311653 241.5849,29.2654271 241.5849,30.0475535" id="Fill-54" fill="#F7C91C" sketch:type="MSShapeGroup"></path>
                <path d="M256.144375,30.0475535 C256.144375,30.82968 255.509021,31.4639418 254.725547,31.4639418 C253.942073,31.4639418 253.307275,30.82968 253.307275,30.0475535 C253.307275,29.2654271 253.942073,28.6311653 254.725547,28.6311653 C255.509021,28.6311653 256.144375,29.2654271 256.144375,30.0475535" id="Fill-56" fill="#F7C91C" sketch:type="MSShapeGroup"></path>
                <path d="M262.19216,30.0475535 C262.19216,30.82968 261.556805,31.4639418 260.773331,31.4639418 C259.989857,31.4639418 259.355059,30.82968 259.355059,30.0475535 C259.355059,29.2654271 259.989857,28.6311653 260.773331,28.6311653 C261.556805,28.6311653 262.19216,29.2654271 262.19216,30.0475535" id="Fill-58" fill="#F7C91C" sketch:type="MSShapeGroup"></path>
                <path d="M236.557971,50.0523141 L236.557971,50.0523141 C236.280108,49.6248406 236.403169,49.0483906 236.831379,48.7710053 L250.532429,39.8996788 C250.960639,39.6222935 251.538639,39.7451435 251.816503,40.1726171 C252.093809,40.6000906 251.970747,41.1770965 251.542537,41.4539259 L237.841487,50.3252524 C237.413277,50.6026376 236.835834,50.4797876 236.557971,50.0523141" id="Fill-60" fill="#FFFFFF" sketch:type="MSShapeGroup"></path>
                <path d="M244.335746,53.0834294 L244.335746,53.0834294 C244.057883,52.6559559 244.180945,52.0795059 244.609155,51.8021206 L254.711904,45.2610529 C255.140114,44.9836676 255.717557,45.1065176 255.99542,45.5339912 C256.273284,45.9614647 256.150222,46.5379147 255.722012,46.8153 L245.619262,53.3563676 C245.191052,53.6337529 244.613609,53.5109029 244.335746,53.0834294" id="Fill-62" fill="#FFFFFF" sketch:type="MSShapeGroup"></path>
                <path d="M185.559104,146.850554 C185.559104,170.129239 167.078139,188.999778 144.280549,188.999778 C121.48296,188.999778 103.001994,170.129239 103.001994,146.850554 C103.001994,123.571869 121.48296,104.701331 144.280549,104.701331 C167.078139,104.701331 185.559104,123.571869 185.559104,146.850554" id="Fill-64" fill="#F7C91C" sketch:type="MSShapeGroup"></path>
                <path d="M160.489941,169.044657 L127.636377,169.044657 C126.105066,169.044657 124.852176,167.793922 124.852176,166.265246 L124.852176,125.129951 C124.852176,123.601275 126.105066,122.35054 127.636377,122.35054 L160.489941,122.35054 C162.021251,122.35054 163.274142,123.601275 163.274142,125.129951 L163.274142,166.265246 C163.274142,167.793922 162.021251,169.044657 160.489941,169.044657" id="Fill-66" fill="#FFFFFF" sketch:type="MSShapeGroup"></path>
                <path d="M140.072509,144.368373 L130.234815,144.368373 C128.703505,144.368373 127.450615,143.117637 127.450615,141.588961 L127.450615,128.425111 C127.450615,126.896434 128.703505,125.645699 130.234815,125.645699 L140.072509,125.645699 C141.603819,125.645699 142.856709,126.896434 142.856709,128.425111 L142.856709,141.588961 C142.856709,143.117637 141.603819,144.368373 140.072509,144.368373" id="Fill-68" fill="#F7C91C" sketch:type="MSShapeGroup"></path>
                <path d="M140.072509,165.749554 L130.234815,165.749554 C128.703505,165.749554 127.450615,164.498818 127.450615,162.970142 L127.450615,149.806292 C127.450615,148.277615 128.703505,147.02688 130.234815,147.02688 L140.072509,147.02688 C141.603819,147.02688 142.856709,148.277615 142.856709,149.806292 L142.856709,162.970142 C142.856709,164.498818 141.603819,165.749554 140.072509,165.749554" id="Fill-70" fill="#F7C91C" sketch:type="MSShapeGroup"></path>
                <path d="M157.891391,144.368373 L148.053698,144.368373 C146.522387,144.368373 145.269497,143.117637 145.269497,141.588961 L145.269497,128.425111 C145.269497,126.896434 146.522387,125.645699 148.053698,125.645699 L157.891391,125.645699 C159.422702,125.645699 160.675592,126.896434 160.675592,128.425111 L160.675592,141.588961 C160.675592,143.117637 159.422702,144.368373 157.891391,144.368373" id="Fill-72" fill="#F7C91C" sketch:type="MSShapeGroup"></path>
                <path d="M157.891391,165.749554 L148.053698,165.749554 C146.522387,165.749554 145.269497,164.498818 145.269497,162.970142 L145.269497,149.806292 C145.269497,148.277615 146.522387,147.02688 148.053698,147.02688 L157.891391,147.02688 C159.422702,147.02688 160.675592,148.277615 160.675592,149.806292 L160.675592,162.970142 C160.675592,164.498818 159.422702,165.749554 157.891391,165.749554" id="Fill-74" fill="#F7C91C" sketch:type="MSShapeGroup"></path>
                <path d="M137.22533,124.467229 C137.08612,125.576214 132.059524,144.457314 128.533056,146.639708 C131.549459,149.933867 135.400008,165.098893 135.121588,166.349629 C134.843168,167.600364 127.278496,167.200684 127.278496,167.200684 L127.278496,124.397743 L137.22533,124.467229 Z" id="Fill-76" fill="#FFFFFF" sketch:type="MSShapeGroup"></path>
                <path d="M150.693899,123.911346 C150.833109,125.020331 155.835761,143.901431 159.362229,146.083826 C156.345826,149.377984 152.531471,164.543011 152.809892,165.793746 C153.088312,167.044481 160.688622,166.644802 160.688622,166.644802 L160.688622,123.841861 L150.693899,123.911346 Z" id="Fill-78" fill="#FFFFFF" sketch:type="MSShapeGroup"></path>
                <g id="Group-82">
                    <mask id="mask-4" sketch:name="Clip 81" fill="white">
                        <use xlink:href="#path-3"></use>
                    </mask>
                    <g id="Clip-81"></g>
                    <path d="M82.5569985,146.850554 C82.5569985,170.129239 64.0760331,188.999778 41.2784435,188.999778 C18.4808539,188.999778 -0.000111368015,170.129239 -0.000111368015,146.850554 C-0.000111368015,123.571869 18.4808539,104.701331 41.2784435,104.701331 C64.0760331,104.701331 82.5569985,123.571869 82.5569985,146.850554" id="Fill-80" fill="#F7C91C" sketch:type="MSShapeGroup" mask="url(#mask-4)"></path>
                </g>
                <path d="M54.8900094,164.428388 L26.1258784,164.428388 C25.5133543,164.428388 25.0121983,163.928094 25.0121983,163.316623 L25.0121983,127.876344 C25.0121983,127.264873 25.5133543,126.764579 26.1258784,126.764579 L54.8900094,126.764579 C55.5025335,126.764579 56.0036896,127.264873 56.0036896,127.876344 L56.0036896,163.316623 C56.0036896,163.928094 55.5025335,164.428388 54.8900094,164.428388" id="Fill-83" fill="#FFFFFF" sketch:type="MSShapeGroup"></path>
                <path d="M57.1659262,169.0978 L23.4498164,169.0978 C22.9720476,169.0978 22.7159012,168.536914 23.0294021,168.177259 L24.8458145,166.08992 C24.9516141,165.968182 25.1053019,165.898697 25.2662287,165.898697 L55.7125736,165.898697 C55.8952171,165.898697 56.0656102,165.987638 56.1697393,166.13717 L57.6230919,168.224509 C57.8797952,168.593059 57.615853,169.0978 57.1659262,169.0978" id="Fill-85" fill="#FFFFFF" sketch:type="MSShapeGroup"></path>
                <path d="M53.7563944,162.591808 L27.2597162,162.591808 C26.9534541,162.591808 26.7028761,162.341661 26.7028761,162.035926 L26.7028761,129.157152 C26.7028761,128.851417 26.9534541,128.60127 27.2597162,128.60127 L53.7563944,128.60127 C54.0626565,128.60127 54.3132345,128.851417 54.3132345,129.157152 L54.3132345,162.035926 C54.3132345,162.341661 54.0626565,162.591808 53.7563944,162.591808" id="Fill-87" fill="#F7C91C" sketch:type="MSShapeGroup"></path>
                <path d="M41.246648,128.28892 L41.246648,164.421273" id="Stroke-89" stroke="#FFFFFF" stroke-width="3" sketch:type="MSShapeGroup"></path>
                <path d="M55.4460699,146.355096 L25.9335459,146.355096" id="Stroke-91" stroke="#FFFFFF" stroke-width="3" sketch:type="MSShapeGroup"></path>
                <path d="M22.8945911,127.18894 L22.8945911,163.876063 C22.8945911,164.179575 22.7409033,164.463075 22.4858705,164.628172 L17.9943985,167.542107 C17.3969091,167.929557 16.606753,167.501528 16.606753,166.789999 L16.606753,124.30669 C16.606753,123.596828 17.3924543,123.168799 17.9905006,123.552357 L22.4819726,126.434607 C22.7392328,126.599704 22.8945911,126.88376 22.8945911,127.18894" id="Fill-93" fill="#FFFFFF" sketch:type="MSShapeGroup"></path>
                <path d="M57.9282403,127.237246 L57.9282403,163.924369 C57.9282403,164.227881 58.0819281,164.511381 58.3369609,164.676478 L62.8284329,167.590414 C63.4259224,167.977864 64.2160784,167.549834 64.2160784,166.838305 L64.2160784,124.354996 C64.2160784,123.645134 63.4303771,123.217105 62.8323308,123.600664 L58.3408588,126.482914 C58.0835987,126.648011 57.9282403,126.932066 57.9282403,127.237246" id="Fill-95" fill="#FFFFFF" sketch:type="MSShapeGroup"></path>
                <path d="M288.56121,146.850554 C288.56121,170.129239 270.080245,188.999778 247.282655,188.999778 C224.485066,188.999778 206.0041,170.129239 206.0041,146.850554 C206.0041,123.571869 224.485066,104.701331 247.282655,104.701331 C270.080245,104.701331 288.56121,123.571869 288.56121,146.850554" id="Fill-97" fill="#F7C91C" sketch:type="MSShapeGroup"></path>
                <path d="M271.500076,171.091861 C271.500076,170.477611 271.001704,169.980096 270.386395,169.980096 L224.725509,169.980096 C224.110201,169.980096 223.611829,170.477611 223.611829,171.091861 L223.611829,173.31539 C223.611829,173.92964 224.110201,174.427155 224.725509,174.427155 L270.386395,174.427155 C271.001704,174.427155 271.500076,173.92964 271.500076,173.31539 L271.500076,171.091861 Z" id="Fill-99" fill="#FFFFFF" sketch:type="MSShapeGroup"></path>
                <path d="M264.644762,166.252182 L229.563837,166.252182 C228.645051,166.252182 227.893317,165.501741 227.893317,164.584535 L227.893317,121.225712 C227.893317,120.308506 228.645051,119.558065 229.563837,119.558065 L264.644762,119.558065 C265.563548,119.558065 266.315282,120.308506 266.315282,121.225712 L266.315282,164.584535 C266.315282,165.501741 265.563548,166.252182 264.644762,166.252182" id="Fill-101" fill="#FFFFFF" sketch:type="MSShapeGroup"></path>
                <path d="M261.785165,163.975233 L232.423545,163.975233 C231.504759,163.975233 230.753024,163.224791 230.753024,162.307586 L230.753024,123.50255 C230.753024,122.585344 231.504759,121.834903 232.423545,121.834903 L261.785165,121.834903 C262.703951,121.834903 263.455685,122.585344 263.455685,123.50255 L263.455685,162.307586 C263.455685,163.224791 262.703951,163.975233 261.785165,163.975233" id="Fill-103" fill="#F7C91C" sketch:type="MSShapeGroup"></path>
                <path d="M247.834372,122.174214 L247.834372,166.644802" id="Stroke-105" stroke="#FFFFFF" stroke-width="3" sketch:type="MSShapeGroup"></path>
                <path d="M265.374835,144.131567 L229.18023,144.131567" id="Stroke-107" stroke="#FFFFFF" stroke-width="3" sketch:type="MSShapeGroup"></path>
                <path d="M239.646095,121.883432 C239.506885,123.001867 234.461357,142.041394 230.934888,144.242132 C233.951291,147.564085 237.830239,162.856964 237.551819,164.118261 C237.273399,165.379558 229.737125,164.976544 229.737125,164.976544 L229.737125,121.813391 L239.646095,121.883432 Z" id="Fill-109" fill="#FFFFFF" sketch:type="MSShapeGroup"></path>
                <path d="M254.785184,121.883432 C254.924394,123.001867 259.908113,142.041394 263.434581,144.242132 C260.418178,147.564085 256.632223,162.856964 256.910643,164.118261 C257.189063,165.379558 264.817772,164.976544 264.817772,164.976544 L264.817772,121.813391 L254.785184,121.883432 Z" id="Fill-111" fill="#FFFFFF" sketch:type="MSShapeGroup"></path>
            </g>
        </g>
    </g>
</svg>