<?xml version="1.0" encoding="UTF-8" standalone="no"?>
<svg width="1636px" height="425px" viewBox="0 0 1636 425" version="1.1" xmlns="http://www.w3.org/2000/svg" xmlns:xlink="http://www.w3.org/1999/xlink" xmlns:sketch="http://www.bohemiancoding.com/sketch/ns">
    <!-- Generator: Sketch 3.5.2 (25235) - http://www.bohemiancoding.com/sketch -->
    <title>Group</title>
    <desc>Created with Sketch.</desc>
    <defs>
        <rect id="path-1" x="0" y="0.961350933" width="424" height="422.670846"></rect>
    </defs>
    <g id="Elements" stroke="none" stroke-width="1" fill="none" fill-rule="evenodd" sketch:type="MSPage">
        <g id="Artboard-2" sketch:type="MSArtboardGroup" transform="translate(-88.000000, -92.000000)">
            <g id="Group" sketch:type="MSLayerGroup" transform="translate(88.000000, 15.000000)">
                <text id="KERSTIN" sketch:type="MSTextLayer" font-family="Source Sans Pro" font-size="244" font-weight="526" fill="#34393A">
                    <tspan x="445" y="240">KERSTIN</tspan>
                </text>
                <text id="SEGERVALL" sketch:type="MSTextLayer" font-family="Source Sans Pro" font-size="244" font-weight="526" line-spacing="258" fill="#34393A">
                    <tspan x="445" y="493">SEGERVALL</tspan>
                </text>
                <g id="Group-2" transform="translate(0.000000, 78.000000)">
                    <g id="stripes">
                        <g>
                            <mask id="mask-2" sketch:name="Mask" fill="white">
                                <use xlink:href="#path-1"></use>
                            </mask>
                            <use id="Mask" fill="#D8D8D8" sketch:type="MSShapeGroup" xlink:href="#path-1"></use>
                            <g mask="url(#mask-2)" sketch:type="MSShapeGroup">
                                <g transform="translate(465.826049, -8.978217) rotate(-225.000000) translate(-465.826049, 8.978217) translate(-404.053697, -626.145213)">
                                    <rect id="Rectangle-279-Copy-36" fill="#EF7201" x="868.961182" y="0" width="12.1762087" height="1233.38043"></rect>
                                    <rect id="Rectangle-279-Copy-37" fill="#EF7201" x="1087.57932" y="0" width="12.1762087" height="1233.38043"></rect>
                                    <rect id="Rectangle-279-Copy-38" fill="#FFFEFC" x="881.821073" y="0" width="12.1762087" height="1233.38043"></rect>
                                    <rect id="Rectangle-279-Copy-39" fill="#FFFEFC" x="1100.43921" y="0" width="12.1762087" height="1233.38043"></rect>
                                    <rect id="Rectangle-279-Copy-40" fill="#EF7201" x="892.843836" y="0" width="12.1762087" height="1233.38043"></rect>
                                    <rect id="Rectangle-279-Copy-41" fill="#EF7201" x="1113.2991" y="0" width="12.1762087" height="1233.38043"></rect>
                                    <rect id="Rectangle-279-Copy-42" fill="#FFFEFC" x="905.703727" y="0" width="12.1762087" height="1233.38043"></rect>
                                    <rect id="Rectangle-279-Copy-21" fill="#FFFEFC" x="255.34993" y="0" width="12.1762087" height="1233.38043"></rect>
                                    <rect id="Rectangle-279-Copy-43" fill="#FFFEFC" x="1124.32187" y="0" width="12.1762087" height="1233.38043"></rect>
                                    <rect id="Rectangle-279-Copy-44" fill="#EF7201" x="918.563617" y="0" width="12.1762087" height="1233.38043"></rect>
                                    <rect id="Rectangle-279-Copy-22" fill="#EF7201" x="267.196061" y="0" width="12.1762087" height="1233.38043"></rect>
                                    <rect id="Rectangle-279-Copy-45" fill="#EF7201" x="1137.18176" y="0" width="12.1762087" height="1233.38043"></rect>
                                    <rect id="Rectangle-279-Copy-46" fill="#FFFEFC" x="929.586381" y="0" width="12.1762087" height="1233.38043"></rect>
                                    <rect id="Rectangle-279-Copy-23" fill="#FFFEFC" x="279.042192" y="0" width="12.1762087" height="1233.38043"></rect>
                                    <rect id="Rectangle-279-Copy-47" fill="#FFFEFC" x="1148.20452" y="0" width="12.1762087" height="1233.38043"></rect>
                                    <rect id="Rectangle-279-Copy-48" fill="#EF7201" x="942.446271" y="0" width="12.1762087" height="1233.38043"></rect>
                                    <rect id="Rectangle-279-Copy-24" fill="#EF7201" x="292.204559" y="0" width="12.1762087" height="1233.38043"></rect>
                                    <rect id="Rectangle-279-Copy-49" fill="#EF7201" x="1161.06441" y="0" width="12.1762087" height="1233.38043"></rect>
                                    <rect id="Rectangle-279-Copy-50" fill="#FFFEFC" x="955.306162" y="0" width="12.1762087" height="1233.38043"></rect>
                                    <rect id="Rectangle-279-Copy-25" fill="#FFFEFC" x="304.05069" y="0" width="12.1762087" height="1233.38043"></rect>
                                    <rect id="Rectangle-279-Copy-51" fill="#FFFEFC" x="1173.9243" y="0" width="12.1762087" height="1233.38043"></rect>
                                    <rect id="Rectangle-279-Copy-52" fill="#EF7201" x="966.328926" y="0" width="12.1762087" height="1233.38043"></rect>
                                    <rect id="Rectangle-279-Copy-26" fill="#EF7201" x="315.896821" y="0" width="12.1762087" height="1233.38043"></rect>
                                    <rect id="Rectangle-279-Copy-53" fill="#EF7201" x="1184.94707" y="0" width="12.1762087" height="1233.38043"></rect>
                                    <rect id="Rectangle-279-Copy-54" fill="#FFFEFC" x="979.188816" y="0" width="12.1762087" height="1233.38043"></rect>
                                    <rect id="Rectangle-279-Copy-27" fill="#FFFEFC" x="329.059189" y="0" width="12.1762087" height="1233.38043"></rect>
                                    <rect id="Rectangle-279-Copy-55" fill="#FFFEFC" x="1197.80696" y="0" width="12.1762087" height="1233.38043"></rect>
                                    <rect id="Rectangle-279-Copy-56" fill="#EF7201" x="990.21158" y="0" width="12.1762087" height="1233.38043"></rect>
                                    <rect id="Rectangle-279-Copy-28" fill="#EF7201" x="339.589083" y="0" width="12.1762087" height="1233.38043"></rect>
                                    <rect id="Rectangle-279-Copy-57" fill="#EF7201" x="1208.82972" y="0" width="12.1762087" height="1233.38043"></rect>
                                    <rect id="Rectangle-279-Copy-58" fill="#FFFEFC" x="1003.07147" y="0" width="12.1762087" height="1233.38043"></rect>
                                    <rect id="Rectangle-279-Copy-29" fill="#FFFEFC" x="351.435213" y="0" width="12.1762087" height="1233.38043"></rect>
                                    <rect id="Rectangle-279-Copy-59" fill="#FFFEFC" x="1219.85248" y="0" width="12.1762087" height="1233.38043"></rect>
                                    <rect id="Rectangle-279-Copy-60" fill="#EF7201" x="1014.09423" y="0" width="12.1762087" height="1233.38043"></rect>
                                    <rect id="Rectangle-279-Copy-30" fill="#EF7201" x="363.259611" y="0" width="12.1762087" height="1233.38043"></rect>
                                    <rect id="Rectangle-279-Copy-61" fill="#EF7201" x="1232.71237" y="0" width="12.1762087" height="1233.38043"></rect>
                                    <rect id="Rectangle-279-Copy-62" fill="#FFFEFC" x="1026.95412" y="0" width="12.1762087" height="1233.38043"></rect>
                                    <rect id="Rectangle-279-Copy-31" fill="#FFFEFC" x="375.105741" y="0" width="12.1762087" height="1233.38043"></rect>
                                    <rect id="Rectangle-279-Copy-63" fill="#FFFEFC" x="1243.73514" y="0" width="12.1762087" height="1233.38043"></rect>
                                    <rect id="Rectangle-279-Copy-64" fill="#EF7201" x="1039.81401" y="0" width="12.1762087" height="1233.38043"></rect>
                                    <rect id="Rectangle-279-Copy-32" fill="#EF7201" x="386.951872" y="0" width="12.1762087" height="1233.38043"></rect>
                                    <rect id="Rectangle-279-Copy-65" fill="#EF7201" x="1256.59503" y="0" width="12.1762087" height="1233.38043"></rect>
                                    <rect id="Rectangle-279-Copy-66" fill="#FFFEFC" x="1050.83678" y="0" width="12.1762087" height="1233.38043"></rect>
                                    <rect id="Rectangle-279-Copy-33" fill="#FFFEFC" x="398.798003" y="0" width="12.1762087" height="1233.38043"></rect>
                                    <rect id="Rectangle-279-Copy-67" fill="#FFFEFC" x="1267.61779" y="0" width="12.1762087" height="1233.38043"></rect>
                                    <rect id="Rectangle-279-Copy-35" fill="#FFFEFC" x="422.798609" y="0" width="12.1762087" height="1233.38043"></rect>
                                    <rect id="Rectangle-279-Copy-68" fill="#FFFEFC" x="1291.50045" y="0" width="12.1762087" height="1233.38043"></rect>
                                    <rect id="Rectangle-279-Copy-69" fill="#EF7201" x="1063.69667" y="0" width="12.1762087" height="1233.38043"></rect>
                                    <rect id="Rectangle-279-Copy-34" fill="#EF7201" x="410.6224" y="0" width="12.1762087" height="1233.38043"></rect>
                                    <rect id="Rectangle-279-Copy-70" fill="#EF7201" x="1280.47768" y="0" width="12.1762087" height="1233.38043"></rect>
                                    <rect id="Rectangle-279-Copy-71" fill="#FFFEFC" x="1074.71943" y="0" width="12.1762087" height="1233.38043"></rect>
                                    <rect id="Rectangle-279" fill="#EF7201" x="434.840341" y="0" width="12.1762087" height="1233.38043"></rect>
                                    <rect id="Rectangle-279-Copy-72" fill="#EF7201" x="1304.36034" y="0" width="12.1762087" height="1233.38043"></rect>
                                    <rect id="Rectangle-279-Copy-18" fill="#EF7201" x="653.335643" y="0" width="12.1762087" height="1233.38043"></rect>
                                    <rect id="Rectangle-279-Copy-73" fill="#EF7201" x="1522.97848" y="0" width="12.1762087" height="1233.38043"></rect>
                                    <rect id="Rectangle-279-Copy" fill="#FFFEFC" x="447.01655" y="0" width="12.1762087" height="1233.38043"></rect>
                                    <rect id="Rectangle-279-Copy-74" fill="#FFFEFC" x="1315.3831" y="0" width="12.1762087" height="1233.38043"></rect>
                                    <rect id="Rectangle-279-Copy-19" fill="#FFFEFC" x="665.181773" y="0" width="12.1762087" height="1233.38043"></rect>
                                    <rect id="Rectangle-279-Copy-75" fill="#FFFEFC" x="1534.00124" y="0" width="12.1762087" height="1233.38043"></rect>
                                    <rect id="Rectangle-279-Copy-2" fill="#EF7201" x="459.192759" y="0" width="12.1762087" height="1233.38043"></rect>
                                    <rect id="Rectangle-279-Copy-76" fill="#EF7201" x="1328.24299" y="0" width="12.1762087" height="1233.38043"></rect>
                                    <rect id="Rectangle-279-Copy-20" fill="#EF7201" x="678.344141" y="0" width="12.1762087" height="1233.38043"></rect>
                                    <rect id="Rectangle-279-Copy-77" fill="#EF7201" x="1546.86113" y="0" width="12.1762087" height="1233.38043"></rect>
                                    <rect id="Rectangle-279-Copy-3" fill="#FFFEFC" x="471.368968" y="0" width="12.1762087" height="1233.38043"></rect>
                                    <rect id="Rectangle-279-Copy-78" fill="#FFFEFC" x="1341.10288" y="0" width="12.1762087" height="1233.38043"></rect>
                                    <rect id="Rectangle-279-Copy-21" fill="#FFFEFC" x="690.190272" y="0" width="12.1762087" height="1233.38043"></rect>
                                    <rect id="Rectangle-279-Copy-79" fill="#FFFEFC" x="1559.72102" y="0" width="12.1762087" height="1233.38043"></rect>
                                    <rect id="Rectangle-279-Copy-4" fill="#EF7201" x="483.545176" y="0" width="12.1762087" height="1233.38043"></rect>
                                    <rect id="Rectangle-279-Copy-80" fill="#EF7201" x="1352.12564" y="0" width="12.1762087" height="1233.38043"></rect>
                                    <rect id="Rectangle-279-Copy-22" fill="#EF7201" x="702.036403" y="0" width="12.1762087" height="1233.38043"></rect>
                                    <rect id="Rectangle-279-Copy-81" fill="#EF7201" x="1570.74379" y="0" width="12.1762087" height="1233.38043"></rect>
                                    <rect id="Rectangle-279-Copy-5" fill="#FFFEFC" x="495.721385" y="0" width="12.1762087" height="1233.38043"></rect>
                                    <rect id="Rectangle-279-Copy-82" fill="#FFFEFC" x="1364.98554" y="0" width="12.1762087" height="1233.38043"></rect>
                                    <rect id="Rectangle-279-Copy-23" fill="#FFFEFC" x="713.882533" y="0" width="12.1762087" height="1233.38043"></rect>
                                    <rect id="Rectangle-279-Copy-83" fill="#FFFEFC" x="1583.60368" y="0" width="12.1762087" height="1233.38043"></rect>
                                    <rect id="Rectangle-279-Copy-6" fill="#EF7201" x="507.897594" y="0" width="12.1762087" height="1233.38043"></rect>
                                    <rect id="Rectangle-279-Copy-84" fill="#EF7201" x="1377.84543" y="0" width="12.1762087" height="1233.38043"></rect>
                                    <rect id="Rectangle-279-Copy-24" fill="#EF7201" x="727.044901" y="0" width="12.1762087" height="1233.38043"></rect>
                                    <rect id="Rectangle-279-Copy-85" fill="#EF7201" x="1596.46357" y="0" width="12.1762087" height="1233.38043"></rect>
                                    <rect id="Rectangle-279-Copy-7" fill="#FFFEFC" x="520.073803" y="0" width="12.1762087" height="1233.38043"></rect>
                                    <rect id="Rectangle-279-Copy-86" fill="#FFFEFC" x="1388.86819" y="0" width="12.1762087" height="1233.38043"></rect>
                                    <rect id="Rectangle-279-Copy-25" fill="#FFFEFC" x="738.891032" y="0" width="12.1762087" height="1233.38043"></rect>
                                    <rect id="Rectangle-279-Copy-87" fill="#FFFEFC" x="1607.48633" y="0" width="12.1762087" height="1233.38043"></rect>
                                    <rect id="Rectangle-279-Copy-8" fill="#EF7201" x="532.250011" y="0" width="12.1762087" height="1233.38043"></rect>
                                    <rect id="Rectangle-279-Copy-88" fill="#EF7201" x="1401.72808" y="0" width="12.1762087" height="1233.38043"></rect>
                                    <rect id="Rectangle-279-Copy-26" fill="#EF7201" x="750.737162" y="0" width="12.1762087" height="1233.38043"></rect>
                                    <rect id="Rectangle-279-Copy-89" fill="#EF7201" x="1620.34622" y="0" width="12.1762087" height="1233.38043"></rect>
                                    <rect id="Rectangle-279-Copy-9" fill="#FFFEFC" x="544.42622" y="0" width="12.1762087" height="1233.38043"></rect>
                                    <rect id="Rectangle-279-Copy-90" fill="#FFFEFC" x="1412.75084" y="0" width="12.1762087" height="1233.38043"></rect>
                                    <rect id="Rectangle-279-Copy-27" fill="#FFFEFC" x="763.89953" y="0" width="12.1762087" height="1233.38043"></rect>
                                    <rect id="Rectangle-279-Copy-91" fill="#FFFEFC" x="1633.20611" y="0" width="12.1762087" height="1233.38043"></rect>
                                    <rect id="Rectangle-279-Copy-10" fill="#EF7201" x="555.925973" y="0" width="12.1762087" height="1233.38043"></rect>
                                    <rect id="Rectangle-279-Copy-92" fill="#EF7201" x="1425.61073" y="0" width="12.1762087" height="1233.38043"></rect>
                                    <rect id="Rectangle-279-Copy-28" fill="#EF7201" x="774.429424" y="0" width="12.1762087" height="1233.38043"></rect>
                                    <rect id="Rectangle-279-Copy-93" fill="#EF7201" x="1644.22888" y="0" width="12.1762087" height="1233.38043"></rect>
                                    <rect id="Rectangle-279-Copy-11" fill="#FFFEFC" x="568.102182" y="0" width="12.1762087" height="1233.38043"></rect>
                                    <rect id="Rectangle-279-Copy-94" fill="#FFFEFC" x="1436.6335" y="0" width="12.1762087" height="1233.38043"></rect>
                                    <rect id="Rectangle-279-Copy-29" fill="#FFFEFC" x="786.275555" y="0" width="12.1762087" height="1233.38043"></rect>
                                    <rect id="Rectangle-279-Copy-95" fill="#FFFEFC" x="1655.25164" y="0" width="12.1762087" height="1233.38043"></rect>
                                    <rect id="Rectangle-279-Copy-12" fill="#EF7201" x="580.27839" y="0" width="12.1762087" height="1233.38043"></rect>
                                    <rect id="Rectangle-279-Copy-96" fill="#EF7201" x="1449.49339" y="0" width="12.1762087" height="1233.38043"></rect>
                                    <rect id="Rectangle-279-Copy-30" fill="#EF7201" x="798.099952" y="0" width="12.1762087" height="1233.38043"></rect>
                                    <rect id="Rectangle-279-Copy-97" fill="#EF7201" x="1668.11153" y="0" width="12.1762087" height="1233.38043"></rect>
                                    <rect id="Rectangle-279-Copy-13" fill="#FFFEFC" x="592.454599" y="0" width="12.1762087" height="1233.38043"></rect>
                                    <rect id="Rectangle-279-Copy-98" fill="#FFFEFC" x="1462.35328" y="0" width="12.1762087" height="1233.38043"></rect>
                                    <rect id="Rectangle-279-Copy-31" fill="#FFFEFC" x="809.946083" y="0" width="12.1762087" height="1233.38043"></rect>
                                    <rect id="Rectangle-279-Copy-99" fill="#FFFEFC" x="1679.13429" y="0" width="12.1762087" height="1233.38043"></rect>
                                    <rect id="Rectangle-279-Copy-14" fill="#EF7201" x="604.630808" y="0" width="12.1762087" height="1233.38043"></rect>
                                    <rect id="Rectangle-279-Copy-100" fill="#EF7201" x="1473.37604" y="0" width="12.1762087" height="1233.38043"></rect>
                                    <rect id="Rectangle-279-Copy-32" fill="#EF7201" x="821.792214" y="0" width="12.1762087" height="1233.38043"></rect>
                                    <rect id="Rectangle-279-Copy-101" fill="#EF7201" x="1690.15706" y="0" width="12.1762087" height="1233.38043"></rect>
                                    <rect id="Rectangle-279-Copy-15" fill="#FFFEFC" x="616.807016" y="0" width="12.1762087" height="1233.38043"></rect>
                                    <rect id="Rectangle-279-Copy-102" fill="#FFFEFC" x="1486.23593" y="0" width="12.1762087" height="1233.38043"></rect>
                                    <rect id="Rectangle-279-Copy-33" fill="#FFFEFC" x="833.638344" y="0" width="12.1762087" height="1233.38043"></rect>
                                    <rect id="Rectangle-279-Copy-103" fill="#FFFEFC" x="1703.01695" y="0" width="12.1762087" height="1233.38043"></rect>
                                    <rect id="Rectangle-279-Copy-35" fill="#FFFEFC" x="857.63895" y="0" width="12.1762087" height="1233.38043"></rect>
                                    <rect id="Rectangle-279-Copy-104" fill="#FFFEFC" x="1726.8996" y="0" width="12.1762087" height="1233.38043"></rect>
                                    <rect id="Rectangle-279-Copy-16" fill="#EF7201" x="628.983225" y="0" width="12.1762087" height="1233.38043"></rect>
                                    <rect id="Rectangle-279-Copy-105" fill="#EF7201" x="1499.09582" y="0" width="12.1762087" height="1233.38043"></rect>
                                    <rect id="Rectangle-279-Copy-34" fill="#EF7201" x="845.462742" y="0" width="12.1762087" height="1233.38043"></rect>
                                    <rect id="Rectangle-279-Copy-106" fill="#EF7201" x="1714.03971" y="0" width="12.1762087" height="1233.38043"></rect>
                                    <rect id="Rectangle-279-Copy-17" fill="#FFFEFC" x="641.159434" y="0" width="12.1762087" height="1233.38043"></rect>
                                    <rect id="Rectangle-279-Copy-107" fill="#FFFEFC" x="1510.11859" y="0" width="12.1762087" height="1233.38043"></rect>
                                </g>
                            </g>
                        </g>
                    </g>
                </g>
                <path d="M119.066665,157.2 L177.866665,157.2 L177.866665,264 L179.466665,264 L257.066665,157.2 L321.866665,157.2 L243.066665,261.2 L336.266665,418 L271.866665,418 L208.266665,308 L177.866665,348 L177.866665,418 L119.066665,418 L119.066665,157.2 Z" id="K" fill="#FFFEFC" sketch:type="MSShapeGroup"></path>
            </g>
        </g>
    </g>
</svg>