<?xml version="1.0" encoding="UTF-8" standalone="no"?>
<svg width="143px" height="37px" viewBox="0 0 143 37" version="1.1" xmlns="http://www.w3.org/2000/svg" xmlns:xlink="http://www.w3.org/1999/xlink" xmlns:sketch="http://www.bohemiancoding.com/sketch/ns">
    <!-- Generator: Sketch 3.5.2 (25235) - http://www.bohemiancoding.com/sketch -->
    <title>Logo outlined</title>
    <desc>Created with Sketch.</desc>
    <defs>
        <rect id="path-1" x="0" y="0.0836940812" width="36.9129412" height="36.7972266"></rect>
    </defs>
    <g id="Elements" stroke="none" stroke-width="1" fill="none" fill-rule="evenodd" sketch:type="MSPage">
        <g id="Header-XS" sketch:type="MSArtboardGroup" transform="translate(-15.000000, -8.000000)">
            <g sketch:type="MSLayerGroup" id="Logo-outlined">
                <g transform="translate(15.000000, 8.000000)">
                    <path d="M40.5042918,0.298089412 L42.9684047,0.298089412 L42.9684047,6.60706824 L43.0321318,6.60706824 L47.9816,0.298089412 L50.7218635,0.298089412 L46.4521506,5.71488941 L51.4441035,14.1905882 L48.7250824,14.1905882 L44.9651859,7.64794353 L42.9684047,10.1332988 L42.9684047,14.1905882 L40.5042918,14.1905882 L40.5042918,0.298089412 Z M53.1859765,0.298089412 L61.5554635,0.298089412 L61.5554635,2.37984 L55.6500894,2.37984 L55.6500894,5.92731294 L60.6420424,5.92731294 L60.6420424,8.00906353 L55.6500894,8.00906353 L55.6500894,12.1088376 L61.7678871,12.1088376 L61.7678871,14.1905882 L53.1859765,14.1905882 L53.1859765,0.298089412 Z M67.0784753,6.79824941 L69.0540141,6.79824941 C70.002844,6.79824941 70.7286171,6.59998943 71.2313553,6.20346353 C71.7340935,5.80693763 71.9854588,5.21215769 71.9854588,4.41910588 C71.9854588,3.61189243 71.7340935,3.05251607 71.2313553,2.74096 C70.7286171,2.42940393 70.002844,2.27362824 69.0540141,2.27362824 L67.0784753,2.27362824 L67.0784753,6.79824941 Z M72.1978824,14.1905882 L69.2027106,8.75254588 L67.0784753,8.75254588 L67.0784753,14.1905882 L64.6143624,14.1905882 L64.6143624,0.298089412 L69.3089224,0.298089412 C70.031166,0.298089412 70.7038337,0.368896547 71.3269459,0.510512941 C71.950058,0.652129336 72.4881922,0.882252524 72.9413647,1.20088941 C73.3945372,1.5195263 73.7521132,1.94082875 74.0141035,2.46480941 C74.2760939,2.98879007 74.4070871,3.64021571 74.4070871,4.41910588 C74.4070871,5.48122884 74.1557217,6.33799517 73.6529835,6.98943059 C73.1502453,7.640866 72.4811179,8.10819309 71.6455812,8.39142588 L74.9593882,14.1905882 L72.1978824,14.1905882 Z M77.5297129,10.7280847 C78.0253703,11.1954188 78.5918274,11.574237 79.2291012,11.8645506 C79.866375,12.1548642 80.5036392,12.3000188 81.1409129,12.3000188 C81.9339647,12.3000188 82.5358254,12.1371624 82.9465129,11.8114447 C83.3572005,11.485727 83.5625412,11.0538035 83.5625412,10.5156612 C83.5625412,10.2324284 83.5094358,9.99168413 83.4032235,9.79342118 C83.2970112,9.59515822 83.1483163,9.42168074 82.9571341,9.27298353 C82.765952,9.12428632 82.5393692,8.9862124 82.2773788,8.85875765 C82.0153885,8.73130289 81.7286196,8.60385005 81.4170635,8.47639529 L79.5052518,7.64794353 C79.1653724,7.50632714 78.8290385,7.3293093 78.49624,7.11688471 C78.1634415,6.90446011 77.8625111,6.64955443 77.59344,6.35216 C77.3243689,6.05476557 77.1084071,5.70781061 76.9455482,5.31128471 C76.7826894,4.9147588 76.7012612,4.46159314 76.7012612,3.95177412 C76.7012612,3.39947018 76.8180929,2.88611845 77.05176,2.41170353 C77.2854271,1.93728861 77.6075995,1.52306687 78.0182871,1.16902588 C78.4289746,0.814984896 78.9210842,0.53883707 79.4946306,0.340574118 C80.068177,0.142311166 80.6948201,0.0431811765 81.3745788,0.0431811765 C82.1817923,0.0431811765 82.9606708,0.20249723 83.7112376,0.521134118 C84.4618045,0.839771005 85.1061495,1.26815417 85.6442918,1.80629647 L84.3909929,3.37823059 C83.9378205,3.01002796 83.4704934,2.71971871 82.9889976,2.50729412 C82.5075019,2.29486953 81.9693677,2.18865882 81.3745788,2.18865882 C80.7089818,2.18865882 80.1779283,2.33381345 79.7814024,2.62412706 C79.3848764,2.91444067 79.1866165,3.31450098 79.1866165,3.82432 C79.1866165,4.09339115 79.2468025,4.32351434 79.3671765,4.51469647 C79.4875504,4.7058786 79.6504068,4.87581573 79.8557506,5.02451294 C80.0610944,5.17321016 80.2982983,5.30774371 80.5673694,5.42811765 C80.8364406,5.54849158 81.1125884,5.66532336 81.3958212,5.77861647 L83.2863906,6.56458353 C83.6970781,6.7345232 84.0723559,6.93278318 84.4122353,7.15936941 C84.7521146,7.38595564 85.0459643,7.64794204 85.2937929,7.94533647 C85.5416216,8.2427309 85.7363413,8.5861455 85.8779576,8.97559059 C86.019574,9.36503567 86.0903812,9.81466098 86.0903812,10.32448 C86.0903812,10.8909456 85.9770898,11.4219991 85.7505035,11.9176565 C85.5239173,12.4133139 85.1946641,12.8487777 84.7627341,13.2240612 C84.3308041,13.5993446 83.8068313,13.8967346 83.1908,14.11624 C82.5747687,14.3357454 81.8773184,14.4454965 81.0984282,14.4454965 C80.16376,14.4454965 79.2609691,14.2684786 78.3900282,13.9144376 C77.5190874,13.5603967 76.75083,13.057666 76.0852329,12.4062306 L77.5297129,10.7280847 Z M90.9973647,2.37984 L86.98256,2.37984 L86.98256,0.298089412 L97.4762824,0.298089412 L97.4762824,2.37984 L93.4614776,2.37984 L93.4614776,14.1905882 L90.9973647,14.1905882 L90.9973647,2.37984 Z M99.7916988,0.298089412 L102.255812,0.298089412 L102.255812,14.1905882 L99.7916988,14.1905882 L99.7916988,0.298089412 Z M105.782042,0.298089412 L108.309882,0.298089412 L112.643322,8.11527529 L114.06656,11.0679624 L114.151529,11.0679624 C114.094883,10.3457187 114.027616,9.57038061 113.949727,8.74192471 C113.871838,7.9134688 113.832894,7.10980782 113.832894,6.33091765 L113.832894,0.298089412 L116.190795,0.298089412 L116.190795,14.1905882 L113.662955,14.1905882 L109.329515,6.37340235 L107.906278,3.42071529 L107.821308,3.42071529 C107.877955,4.15712054 107.945222,4.92891832 108.023111,5.73613176 C108.101,6.54334521 108.139944,7.33638513 108.139944,8.11527529 L108.139944,14.1905882 L105.782042,14.1905882 L105.782042,0.298089412 Z" id="KERSTIN-Copy" fill="#34393A" sketch:type="MSShapeGroup"></path>
                    <path d="M40.9928659,32.7539671 C41.4885233,33.2213012 42.0549803,33.6001193 42.6922541,33.8904329 C43.3295279,34.1807465 43.9667921,34.3259012 44.6040659,34.3259012 C45.3971177,34.3259012 45.9989783,34.1630448 46.4096659,33.8373271 C46.8203534,33.5116094 47.0256941,33.0796858 47.0256941,32.5415435 C47.0256941,32.2583107 46.9725888,32.0175665 46.8663765,31.8193035 C46.7601642,31.6210406 46.6114692,31.4475631 46.4202871,31.2988659 C46.2291049,31.1501687 46.0025221,31.0120948 45.7405318,30.88464 C45.4785414,30.7571852 45.1917725,30.6297324 44.8802165,30.5022776 L42.9684047,29.6738259 C42.6285254,29.5322095 42.2921915,29.3551917 41.9593929,29.1427671 C41.6265944,28.9303425 41.3256641,28.6754368 41.0565929,28.3780424 C40.7875218,28.0806479 40.57156,27.733693 40.4087012,27.3371671 C40.2458423,26.9406412 40.1644141,26.4874755 40.1644141,25.9776565 C40.1644141,25.4253525 40.2812459,24.9120008 40.5149129,24.4375859 C40.74858,23.963171 41.0707525,23.5489492 41.48144,23.1949082 C41.8921275,22.8408672 42.3842371,22.5647194 42.9577835,22.3664565 C43.5313299,22.1681935 44.1579731,22.0690635 44.8377318,22.0690635 C45.6449452,22.0690635 46.4238237,22.2283796 47.1743906,22.5470165 C47.9249575,22.8656534 48.5693024,23.2940365 49.1074447,23.8321788 L47.8541459,25.4041129 C47.4009734,25.0359103 46.9336463,24.7456011 46.4521506,24.5331765 C45.9706548,24.3207519 45.4325206,24.2145412 44.8377318,24.2145412 C44.1721347,24.2145412 43.6410812,24.3596958 43.2445553,24.6500094 C42.8480294,24.940323 42.6497694,25.3403833 42.6497694,25.8502024 C42.6497694,26.1192735 42.7099555,26.3493967 42.8303294,26.5405788 C42.9507033,26.731761 43.1135598,26.9016981 43.3189035,27.0503953 C43.5242473,27.1990925 43.7614512,27.3336261 44.0305224,27.454 C44.2995935,27.5743739 44.5757413,27.6912057 44.8589741,27.8044988 L46.7495435,28.5904659 C47.1602311,28.7604056 47.5355089,28.9586655 47.8753882,29.1852518 C48.2152676,29.411838 48.5091172,29.6738244 48.7569459,29.9712188 C49.0047746,30.2686133 49.1994942,30.6120279 49.3411106,31.0014729 C49.482727,31.390918 49.5535341,31.8405433 49.5535341,32.3503624 C49.5535341,32.9168279 49.4402427,33.4478814 49.2136565,33.9435388 C48.9870702,34.4391962 48.6578171,34.8746601 48.2258871,35.2499435 C47.7939571,35.625227 47.2699843,35.9226169 46.6539529,36.1421224 C46.0379216,36.3616278 45.3404713,36.4713788 44.5615812,36.4713788 C43.626913,36.4713788 42.724122,36.294361 41.8531812,35.94032 C40.9822404,35.586279 40.2139829,35.0835484 39.5483859,34.4321129 L40.9928659,32.7539671 Z M52.0813741,22.3239718 L60.4508612,22.3239718 L60.4508612,24.4057224 L54.5454871,24.4057224 L54.5454871,27.9531953 L59.53744,27.9531953 L59.53744,30.0349459 L54.5454871,30.0349459 L54.5454871,34.13472 L60.6632847,34.13472 L60.6632847,36.2164706 L52.0813741,36.2164706 L52.0813741,22.3239718 Z M62.78752,29.3127059 C62.78752,28.1797747 62.9574571,27.1636923 63.2973365,26.2644282 C63.6372158,25.3651641 64.1045429,24.6039874 64.6993318,23.9808753 C65.2941206,23.3577632 65.9951113,22.8833554 66.8023247,22.5576376 C67.6095382,22.2319199 68.4804659,22.0690635 69.4151341,22.0690635 C69.8966299,22.0690635 70.3427148,22.1186285 70.7534024,22.21776 C71.1640899,22.3168915 71.5393677,22.4478847 71.8792471,22.6107435 C72.2191264,22.7736024 72.5306778,22.9612413 72.8139106,23.1736659 C73.0971434,23.3860905 73.3449683,23.6055926 73.5573929,23.8321788 L72.1978824,25.3616282 C71.8438414,25.0217489 71.4579425,24.7456011 71.0401741,24.5331765 C70.6224058,24.3207519 70.0878119,24.2145412 69.4363765,24.2145412 C68.8132643,24.2145412 68.2503476,24.3313729 67.7476094,24.56504 C67.2448712,24.7987071 66.8129477,25.1315006 66.4518259,25.5634306 C66.0907041,25.9953606 65.8110159,26.5228737 65.6127529,27.1459859 C65.41449,27.769098 65.31536,28.4700887 65.31536,29.2489788 C65.31536,30.8350824 65.672936,32.0777477 66.3880988,32.9770118 C67.1032616,33.8762759 68.1618283,34.3259012 69.5638306,34.3259012 C69.9603565,34.3259012 70.3356343,34.2727958 70.6896753,34.1665835 C71.0437163,34.0603712 71.3340255,33.9081359 71.5606118,33.7098729 L71.5606118,30.7147012 L68.92656,30.7147012 L68.92656,28.6966776 L73.7698165,28.6966776 L73.7698165,34.8144753 C73.2883207,35.2818094 72.6581372,35.674789 71.8792471,35.9934259 C71.1003569,36.3120628 70.2294291,36.4713788 69.2664376,36.4713788 C68.3459311,36.4713788 67.4891647,36.3156031 66.6961129,36.0040471 C65.9030611,35.692491 65.2162319,35.2322446 64.6356047,34.6232941 C64.0549775,34.0143436 63.6018118,33.263788 63.2760941,32.3716047 C62.9503764,31.4794214 62.78752,30.4597987 62.78752,29.3127059 L62.78752,29.3127059 Z M76.8499576,22.3239718 L85.2194447,22.3239718 L85.2194447,24.4057224 L79.3140706,24.4057224 L79.3140706,27.9531953 L84.3060235,27.9531953 L84.3060235,30.0349459 L79.3140706,30.0349459 L79.3140706,34.13472 L85.4318682,34.13472 L85.4318682,36.2164706 L76.8499576,36.2164706 L76.8499576,22.3239718 Z M90.7424565,28.8241318 L92.7179953,28.8241318 C93.6668251,28.8241318 94.3925983,28.6258718 94.8953365,28.2293459 C95.3980747,27.83282 95.64944,27.23804 95.64944,26.4449882 C95.64944,25.6377748 95.3980747,25.0783984 94.8953365,24.7668424 C94.3925983,24.4552863 93.6668251,24.2995106 92.7179953,24.2995106 L90.7424565,24.2995106 L90.7424565,28.8241318 Z M95.8618635,36.2164706 L92.8666918,30.7784282 L90.7424565,30.7784282 L90.7424565,36.2164706 L88.2783435,36.2164706 L88.2783435,22.3239718 L92.9729035,22.3239718 C93.6951471,22.3239718 94.3678149,22.3947789 94.9909271,22.5363953 C95.6140392,22.6780117 96.1521734,22.9081349 96.6053459,23.2267718 C97.0585183,23.5454087 97.4160944,23.9667111 97.6780847,24.4906918 C97.940075,25.0146724 98.0710682,25.6660981 98.0710682,26.4449882 C98.0710682,27.5071112 97.8197029,28.3638775 97.3169647,29.0153129 C96.8142265,29.6667484 96.1450991,30.1340754 95.3095624,30.4173082 L98.6233694,36.2164706 L95.8618635,36.2164706 Z M98.8145506,22.3239718 L101.42736,22.3239718 L103.381656,29.3127059 C103.608243,30.1057577 103.810043,30.8563133 103.987064,31.5643953 C104.164084,32.2724773 104.372965,33.0301136 104.613713,33.8373271 L104.698682,33.8373271 C104.93943,33.0301136 105.148311,32.2724773 105.325332,31.5643953 C105.502352,30.8563133 105.697072,30.1057577 105.909496,29.3127059 L107.842551,22.3239718 L110.370391,22.3239718 L106.058193,36.2164706 L103.147991,36.2164706 L98.8145506,22.3239718 Z M117.614033,30.52352 L117.125459,28.8241318 C116.898873,28.0877265 116.682911,27.3300902 116.477567,26.5512 C116.272223,25.7723098 116.070423,25.0005121 115.87216,24.2357835 L115.787191,24.2357835 C115.588928,25.0146737 115.390668,25.7900118 115.192405,26.5618212 C114.994142,27.3336305 114.78172,28.0877265 114.555134,28.8241318 L114.06656,30.52352 L117.614033,30.52352 Z M118.166334,32.4565741 L113.493016,32.4565741 L112.409656,36.2164706 L109.903059,36.2164706 L114.42768,22.3239718 L117.31664,22.3239718 L121.841261,36.2164706 L119.249694,36.2164706 L118.166334,32.4565741 Z M123.561892,22.3239718 L126.026005,22.3239718 L126.026005,34.13472 L131.803925,34.13472 L131.803925,36.2164706 L123.561892,36.2164706 L123.561892,22.3239718 Z M134.225553,22.3239718 L136.689666,22.3239718 L136.689666,34.13472 L142.467586,34.13472 L142.467586,36.2164706 L134.225553,36.2164706 L134.225553,22.3239718 Z" id="SEGERVALL-Copy" fill="#34393A" sketch:type="MSShapeGroup"></path>
                    <g id="Group-3-Copy" transform="translate(0.000000, 0.087059)">
                        <g id="Group-2">
                            <g id="stripes">
                                <mask id="mask-2" sketch:name="Mask" fill="white">
                                    <use xlink:href="#path-1"></use>
                                </mask>
                                <use id="Mask" fill="#D8D8D8" sketch:type="MSShapeGroup" xlink:href="#path-1"></use>
                                <g mask="url(#mask-2)" sketch:type="MSShapeGroup">
                                    <g transform="translate(23.159461, 16.613174) rotate(-225.000000) translate(-23.159461, -16.613174) translate(-27.971275, -19.663337)">
                                        <rect id="Rectangle-279" fill="#EF7201" x="0" y="0" width="0.715706405" height="72.4969731"></rect>
                                        <rect id="Rectangle-279-Copy-36" fill="#EF7201" x="51.076743" y="0" width="0.715706405" height="72.4969731"></rect>
                                        <rect id="Rectangle-279-Copy-18" fill="#EF7201" x="12.8429538" y="0" width="0.715706405" height="72.4969731"></rect>
                                        <rect id="Rectangle-279-Copy-37" fill="#EF7201" x="63.9269172" y="0" width="0.715706405" height="72.4969731"></rect>
                                        <rect id="Rectangle-279-Copy" fill="#FFFEFC" x="0.715706405" y="0" width="0.715706405" height="72.4969731"></rect>
                                        <rect id="Rectangle-279-Copy-38" fill="#FFFEFC" x="51.8326356" y="0" width="0.715706405" height="72.4969731"></rect>
                                        <rect id="Rectangle-279-Copy-19" fill="#FFFEFC" x="13.5392586" y="0" width="0.715706405" height="72.4969731"></rect>
                                        <rect id="Rectangle-279-Copy-39" fill="#FFFEFC" x="64.6828098" y="0" width="0.715706405" height="72.4969731"></rect>
                                        <rect id="Rectangle-279-Copy-2" fill="#EF7201" x="1.43141281" y="0" width="0.715706405" height="72.4969731"></rect>
                                        <rect id="Rectangle-279-Copy-40" fill="#EF7201" x="52.4805435" y="0" width="0.715706405" height="72.4969731"></rect>
                                        <rect id="Rectangle-279-Copy-20" fill="#EF7201" x="14.3129305" y="0" width="0.715706405" height="72.4969731"></rect>
                                        <rect id="Rectangle-279-Copy-41" fill="#EF7201" x="65.4387024" y="0" width="0.715706405" height="72.4969731"></rect>
                                        <rect id="Rectangle-279-Copy-3" fill="#FFFEFC" x="2.14711922" y="0" width="0.715706405" height="72.4969731"></rect>
                                        <rect id="Rectangle-279-Copy-42" fill="#FFFEFC" x="53.2364361" y="0" width="0.715706405" height="72.4969731"></rect>
                                        <rect id="Rectangle-279-Copy-21" fill="#FFFEFC" x="15.0092352" y="0" width="0.715706405" height="72.4969731"></rect>
                                        <rect id="Rectangle-279-Copy-43" fill="#FFFEFC" x="66.0866103" y="0" width="0.715706405" height="72.4969731"></rect>
                                        <rect id="Rectangle-279-Copy-4" fill="#EF7201" x="2.86282562" y="0" width="0.715706405" height="72.4969731"></rect>
                                        <rect id="Rectangle-279-Copy-44" fill="#EF7201" x="53.9923287" y="0" width="0.715706405" height="72.4969731"></rect>
                                        <rect id="Rectangle-279-Copy-22" fill="#EF7201" x="15.7055399" y="0" width="0.715706405" height="72.4969731"></rect>
                                        <rect id="Rectangle-279-Copy-45" fill="#EF7201" x="66.842503" y="0" width="0.715706405" height="72.4969731"></rect>
                                        <rect id="Rectangle-279-Copy-5" fill="#FFFEFC" x="3.57853203" y="0" width="0.715706405" height="72.4969731"></rect>
                                        <rect id="Rectangle-279-Copy-46" fill="#FFFEFC" x="54.6402367" y="0" width="0.715706405" height="72.4969731"></rect>
                                        <rect id="Rectangle-279-Copy-23" fill="#FFFEFC" x="16.4018446" y="0" width="0.715706405" height="72.4969731"></rect>
                                        <rect id="Rectangle-279-Copy-47" fill="#FFFEFC" x="67.4904109" y="0" width="0.715706405" height="72.4969731"></rect>
                                        <rect id="Rectangle-279-Copy-6" fill="#EF7201" x="4.29423843" y="0" width="0.715706405" height="72.4969731"></rect>
                                        <rect id="Rectangle-279-Copy-48" fill="#EF7201" x="55.3961293" y="0" width="0.715706405" height="72.4969731"></rect>
                                        <rect id="Rectangle-279-Copy-24" fill="#EF7201" x="17.1755166" y="0" width="0.715706405" height="72.4969731"></rect>
                                        <rect id="Rectangle-279-Copy-49" fill="#EF7201" x="68.2463035" y="0" width="0.715706405" height="72.4969731"></rect>
                                        <rect id="Rectangle-279-Copy-7" fill="#FFFEFC" x="5.00994484" y="0" width="0.715706405" height="72.4969731"></rect>
                                        <rect id="Rectangle-279-Copy-50" fill="#FFFEFC" x="56.1520219" y="0" width="0.715706405" height="72.4969731"></rect>
                                        <rect id="Rectangle-279-Copy-25" fill="#FFFEFC" x="17.8718213" y="0" width="0.715706405" height="72.4969731"></rect>
                                        <rect id="Rectangle-279-Copy-51" fill="#FFFEFC" x="69.0021961" y="0" width="0.715706405" height="72.4969731"></rect>
                                        <rect id="Rectangle-279-Copy-8" fill="#EF7201" x="5.72565124" y="0" width="0.715706405" height="72.4969731"></rect>
                                        <rect id="Rectangle-279-Copy-52" fill="#EF7201" x="56.7999298" y="0" width="0.715706405" height="72.4969731"></rect>
                                        <rect id="Rectangle-279-Copy-26" fill="#EF7201" x="18.568126" y="0" width="0.715706405" height="72.4969731"></rect>
                                        <rect id="Rectangle-279-Copy-53" fill="#EF7201" x="69.650104" y="0" width="0.715706405" height="72.4969731"></rect>
                                        <rect id="Rectangle-279-Copy-9" fill="#FFFEFC" x="6.44135765" y="0" width="0.715706405" height="72.4969731"></rect>
                                        <rect id="Rectangle-279-Copy-54" fill="#FFFEFC" x="57.5558224" y="0" width="0.715706405" height="72.4969731"></rect>
                                        <rect id="Rectangle-279-Copy-27" fill="#FFFEFC" x="19.3417979" y="0" width="0.715706405" height="72.4969731"></rect>
                                        <rect id="Rectangle-279-Copy-55" fill="#FFFEFC" x="70.4059966" y="0" width="0.715706405" height="72.4969731"></rect>
                                        <rect id="Rectangle-279-Copy-10" fill="#EF7201" x="7.11730258" y="0" width="0.715706405" height="72.4969731"></rect>
                                        <rect id="Rectangle-279-Copy-56" fill="#EF7201" x="58.2037304" y="0" width="0.715706405" height="72.4969731"></rect>
                                        <rect id="Rectangle-279-Copy-28" fill="#EF7201" x="19.9607355" y="0" width="0.715706405" height="72.4969731"></rect>
                                        <rect id="Rectangle-279-Copy-57" fill="#EF7201" x="71.0539046" y="0" width="0.715706405" height="72.4969731"></rect>
                                        <rect id="Rectangle-279-Copy-11" fill="#FFFEFC" x="7.83300899" y="0" width="0.715706405" height="72.4969731"></rect>
                                        <rect id="Rectangle-279-Copy-58" fill="#FFFEFC" x="58.959623" y="0" width="0.715706405" height="72.4969731"></rect>
                                        <rect id="Rectangle-279-Copy-29" fill="#FFFEFC" x="20.6570402" y="0" width="0.715706405" height="72.4969731"></rect>
                                        <rect id="Rectangle-279-Copy-59" fill="#FFFEFC" x="71.7018125" y="0" width="0.715706405" height="72.4969731"></rect>
                                        <rect id="Rectangle-279-Copy-12" fill="#EF7201" x="8.54871539" y="0" width="0.715706405" height="72.4969731"></rect>
                                        <rect id="Rectangle-279-Copy-60" fill="#EF7201" x="59.6075309" y="0" width="0.715706405" height="72.4969731"></rect>
                                        <rect id="Rectangle-279-Copy-30" fill="#EF7201" x="21.3520674" y="0" width="0.715706405" height="72.4969731"></rect>
                                        <rect id="Rectangle-279-Copy-61" fill="#EF7201" x="72.4577051" y="0" width="0.715706405" height="72.4969731"></rect>
                                        <rect id="Rectangle-279-Copy-13" fill="#FFFEFC" x="9.2644218" y="0" width="0.715706405" height="72.4969731"></rect>
                                        <rect id="Rectangle-279-Copy-62" fill="#FFFEFC" x="60.3634235" y="0" width="0.715706405" height="72.4969731"></rect>
                                        <rect id="Rectangle-279-Copy-31" fill="#FFFEFC" x="22.0483722" y="0" width="0.715706405" height="72.4969731"></rect>
                                        <rect id="Rectangle-279-Copy-63" fill="#FFFEFC" x="73.1056131" y="0" width="0.715706405" height="72.4969731"></rect>
                                        <rect id="Rectangle-279-Copy-14" fill="#EF7201" x="9.9801282" y="0" width="0.715706405" height="72.4969731"></rect>
                                        <rect id="Rectangle-279-Copy-64" fill="#EF7201" x="61.1193161" y="0" width="0.715706405" height="72.4969731"></rect>
                                        <rect id="Rectangle-279-Copy-32" fill="#EF7201" x="22.7446769" y="0" width="0.715706405" height="72.4969731"></rect>
                                        <rect id="Rectangle-279-Copy-65" fill="#EF7201" x="73.8615057" y="0" width="0.715706405" height="72.4969731"></rect>
                                        <rect id="Rectangle-279-Copy-15" fill="#FFFEFC" x="10.6958346" y="0" width="0.715706405" height="72.4969731"></rect>
                                        <rect id="Rectangle-279-Copy-66" fill="#FFFEFC" x="61.7672241" y="0" width="0.715706405" height="72.4969731"></rect>
                                        <rect id="Rectangle-279-Copy-33" fill="#FFFEFC" x="23.4409816" y="0" width="0.715706405" height="72.4969731"></rect>
                                        <rect id="Rectangle-279-Copy-67" fill="#FFFEFC" x="74.5094136" y="0" width="0.715706405" height="72.4969731"></rect>
                                        <rect id="Rectangle-279-Copy-35" fill="#FFFEFC" x="24.8517153" y="0" width="0.715706405" height="72.4969731"></rect>
                                        <rect id="Rectangle-279-Copy-68" fill="#FFFEFC" x="75.9132142" y="0" width="0.715706405" height="72.4969731"></rect>
                                        <rect id="Rectangle-279-Copy-16" fill="#EF7201" x="11.411541" y="0" width="0.715706405" height="72.4969731"></rect>
                                        <rect id="Rectangle-279-Copy-69" fill="#EF7201" x="62.5231167" y="0" width="0.715706405" height="72.4969731"></rect>
                                        <rect id="Rectangle-279-Copy-34" fill="#EF7201" x="24.1360089" y="0" width="0.715706405" height="72.4969731"></rect>
                                        <rect id="Rectangle-279-Copy-70" fill="#EF7201" x="75.2653062" y="0" width="0.715706405" height="72.4969731"></rect>
                                        <rect id="Rectangle-279-Copy-17" fill="#FFFEFC" x="12.1272474" y="0" width="0.715706405" height="72.4969731"></rect>
                                        <rect id="Rectangle-279-Copy-71" fill="#FFFEFC" x="63.1710246" y="0" width="0.715706405" height="72.4969731"></rect>
                                        <rect id="Rectangle-279" fill="#EF7201" x="25.5595173" y="0" width="0.715706405" height="72.4969731"></rect>
                                        <rect id="Rectangle-279-Copy-72" fill="#EF7201" x="76.6691068" y="0" width="0.715706405" height="72.4969731"></rect>
                                        <rect id="Rectangle-279-Copy-18" fill="#EF7201" x="38.4024711" y="0" width="0.715706405" height="72.4969731"></rect>
                                        <rect id="Rectangle-279-Copy-73" fill="#EF7201" x="89.519281" y="0" width="0.715706405" height="72.4969731"></rect>
                                        <rect id="Rectangle-279-Copy" fill="#FFFEFC" x="26.2752237" y="0" width="0.715706405" height="72.4969731"></rect>
                                        <rect id="Rectangle-279-Copy-74" fill="#FFFEFC" x="77.3170147" y="0" width="0.715706405" height="72.4969731"></rect>
                                        <rect id="Rectangle-279-Copy-19" fill="#FFFEFC" x="39.0987758" y="0" width="0.715706405" height="72.4969731"></rect>
                                        <rect id="Rectangle-279-Copy-75" fill="#FFFEFC" x="90.167189" y="0" width="0.715706405" height="72.4969731"></rect>
                                        <rect id="Rectangle-279-Copy-2" fill="#EF7201" x="26.9909301" y="0" width="0.715706405" height="72.4969731"></rect>
                                        <rect id="Rectangle-279-Copy-76" fill="#EF7201" x="78.0729073" y="0" width="0.715706405" height="72.4969731"></rect>
                                        <rect id="Rectangle-279-Copy-20" fill="#EF7201" x="39.8724478" y="0" width="0.715706405" height="72.4969731"></rect>
                                        <rect id="Rectangle-279-Copy-77" fill="#EF7201" x="90.9230816" y="0" width="0.715706405" height="72.4969731"></rect>
                                        <rect id="Rectangle-279-Copy-3" fill="#FFFEFC" x="27.7066365" y="0" width="0.715706405" height="72.4969731"></rect>
                                        <rect id="Rectangle-279-Copy-78" fill="#FFFEFC" x="78.8287999" y="0" width="0.715706405" height="72.4969731"></rect>
                                        <rect id="Rectangle-279-Copy-21" fill="#FFFEFC" x="40.5687525" y="0" width="0.715706405" height="72.4969731"></rect>
                                        <rect id="Rectangle-279-Copy-79" fill="#FFFEFC" x="91.6789742" y="0" width="0.715706405" height="72.4969731"></rect>
                                        <rect id="Rectangle-279-Copy-4" fill="#EF7201" x="28.4223429" y="0" width="0.715706405" height="72.4969731"></rect>
                                        <rect id="Rectangle-279-Copy-80" fill="#EF7201" x="79.4767079" y="0" width="0.715706405" height="72.4969731"></rect>
                                        <rect id="Rectangle-279-Copy-22" fill="#EF7201" x="41.2650572" y="0" width="0.715706405" height="72.4969731"></rect>
                                        <rect id="Rectangle-279-Copy-81" fill="#EF7201" x="92.3268821" y="0" width="0.715706405" height="72.4969731"></rect>
                                        <rect id="Rectangle-279-Copy-5" fill="#FFFEFC" x="29.1380493" y="0" width="0.715706405" height="72.4969731"></rect>
                                        <rect id="Rectangle-279-Copy-82" fill="#FFFEFC" x="80.2326005" y="0" width="0.715706405" height="72.4969731"></rect>
                                        <rect id="Rectangle-279-Copy-23" fill="#FFFEFC" x="41.9613619" y="0" width="0.715706405" height="72.4969731"></rect>
                                        <rect id="Rectangle-279-Copy-83" fill="#FFFEFC" x="93.0827747" y="0" width="0.715706405" height="72.4969731"></rect>
                                        <rect id="Rectangle-279-Copy-6" fill="#EF7201" x="29.8537557" y="0" width="0.715706405" height="72.4969731"></rect>
                                        <rect id="Rectangle-279-Copy-84" fill="#EF7201" x="80.9884931" y="0" width="0.715706405" height="72.4969731"></rect>
                                        <rect id="Rectangle-279-Copy-24" fill="#EF7201" x="42.7350338" y="0" width="0.715706405" height="72.4969731"></rect>
                                        <rect id="Rectangle-279-Copy-85" fill="#EF7201" x="93.8386673" y="0" width="0.715706405" height="72.4969731"></rect>
                                        <rect id="Rectangle-279-Copy-7" fill="#FFFEFC" x="30.5694621" y="0" width="0.715706405" height="72.4969731"></rect>
                                        <rect id="Rectangle-279-Copy-86" fill="#FFFEFC" x="81.636401" y="0" width="0.715706405" height="72.4969731"></rect>
                                        <rect id="Rectangle-279-Copy-25" fill="#FFFEFC" x="43.4313386" y="0" width="0.715706405" height="72.4969731"></rect>
                                        <rect id="Rectangle-279-Copy-87" fill="#FFFEFC" x="94.4865753" y="0" width="0.715706405" height="72.4969731"></rect>
                                        <rect id="Rectangle-279-Copy-8" fill="#EF7201" x="31.2851685" y="0" width="0.715706405" height="72.4969731"></rect>
                                        <rect id="Rectangle-279-Copy-88" fill="#EF7201" x="82.3922936" y="0" width="0.715706405" height="72.4969731"></rect>
                                        <rect id="Rectangle-279-Copy-26" fill="#EF7201" x="44.1276433" y="0" width="0.715706405" height="72.4969731"></rect>
                                        <rect id="Rectangle-279-Copy-89" fill="#EF7201" x="95.2424679" y="0" width="0.715706405" height="72.4969731"></rect>
                                        <rect id="Rectangle-279-Copy-9" fill="#FFFEFC" x="32.0008749" y="0" width="0.715706405" height="72.4969731"></rect>
                                        <rect id="Rectangle-279-Copy-90" fill="#FFFEFC" x="83.0402016" y="0" width="0.715706405" height="72.4969731"></rect>
                                        <rect id="Rectangle-279-Copy-27" fill="#FFFEFC" x="44.9013152" y="0" width="0.715706405" height="72.4969731"></rect>
                                        <rect id="Rectangle-279-Copy-91" fill="#FFFEFC" x="95.9983605" y="0" width="0.715706405" height="72.4969731"></rect>
                                        <rect id="Rectangle-279-Copy-10" fill="#EF7201" x="32.6768199" y="0" width="0.715706405" height="72.4969731"></rect>
                                        <rect id="Rectangle-279-Copy-92" fill="#EF7201" x="83.7960942" y="0" width="0.715706405" height="72.4969731"></rect>
                                        <rect id="Rectangle-279-Copy-28" fill="#EF7201" x="45.5202527" y="0" width="0.715706405" height="72.4969731"></rect>
                                        <rect id="Rectangle-279-Copy-93" fill="#EF7201" x="96.6462684" y="0" width="0.715706405" height="72.4969731"></rect>
                                        <rect id="Rectangle-279-Copy-11" fill="#FFFEFC" x="33.3925263" y="0" width="0.715706405" height="72.4969731"></rect>
                                        <rect id="Rectangle-279-Copy-94" fill="#FFFEFC" x="84.4440021" y="0" width="0.715706405" height="72.4969731"></rect>
                                        <rect id="Rectangle-279-Copy-29" fill="#FFFEFC" x="46.2165575" y="0" width="0.715706405" height="72.4969731"></rect>
                                        <rect id="Rectangle-279-Copy-95" fill="#FFFEFC" x="97.2941763" y="0" width="0.715706405" height="72.4969731"></rect>
                                        <rect id="Rectangle-279-Copy-12" fill="#EF7201" x="34.1082327" y="0" width="0.715706405" height="72.4969731"></rect>
                                        <rect id="Rectangle-279-Copy-96" fill="#EF7201" x="85.1998947" y="0" width="0.715706405" height="72.4969731"></rect>
                                        <rect id="Rectangle-279-Copy-30" fill="#EF7201" x="46.9115847" y="0" width="0.715706405" height="72.4969731"></rect>
                                        <rect id="Rectangle-279-Copy-97" fill="#EF7201" x="98.0500689" y="0" width="0.715706405" height="72.4969731"></rect>
                                        <rect id="Rectangle-279-Copy-13" fill="#FFFEFC" x="34.8239391" y="0" width="0.715706405" height="72.4969731"></rect>
                                        <rect id="Rectangle-279-Copy-98" fill="#FFFEFC" x="85.9557873" y="0" width="0.715706405" height="72.4969731"></rect>
                                        <rect id="Rectangle-279-Copy-31" fill="#FFFEFC" x="47.6078894" y="0" width="0.715706405" height="72.4969731"></rect>
                                        <rect id="Rectangle-279-Copy-99" fill="#FFFEFC" x="98.6979769" y="0" width="0.715706405" height="72.4969731"></rect>
                                        <rect id="Rectangle-279-Copy-14" fill="#EF7201" x="35.5396455" y="0" width="0.715706405" height="72.4969731"></rect>
                                        <rect id="Rectangle-279-Copy-100" fill="#EF7201" x="86.6036953" y="0" width="0.715706405" height="72.4969731"></rect>
                                        <rect id="Rectangle-279-Copy-32" fill="#EF7201" x="48.3041942" y="0" width="0.715706405" height="72.4969731"></rect>
                                        <rect id="Rectangle-279-Copy-101" fill="#EF7201" x="99.3458848" y="0" width="0.715706405" height="72.4969731"></rect>
                                        <rect id="Rectangle-279-Copy-15" fill="#FFFEFC" x="36.2553519" y="0" width="0.715706405" height="72.4969731"></rect>
                                        <rect id="Rectangle-279-Copy-102" fill="#FFFEFC" x="87.3595879" y="0" width="0.715706405" height="72.4969731"></rect>
                                        <rect id="Rectangle-279-Copy-33" fill="#FFFEFC" x="49.0004989" y="0" width="0.715706405" height="72.4969731"></rect>
                                        <rect id="Rectangle-279-Copy-103" fill="#FFFEFC" x="100.101777" y="0" width="0.715706405" height="72.4969731"></rect>
                                        <rect id="Rectangle-279-Copy-35" fill="#FFFEFC" x="50.4112326" y="0" width="0.715706405" height="72.4969731"></rect>
                                        <rect id="Rectangle-279-Copy-104" fill="#FFFEFC" x="101.505578" y="0" width="0.715706405" height="72.4969731"></rect>
                                        <rect id="Rectangle-279-Copy-16" fill="#EF7201" x="36.9710583" y="0" width="0.715706405" height="72.4969731"></rect>
                                        <rect id="Rectangle-279-Copy-105" fill="#EF7201" x="88.1154805" y="0" width="0.715706405" height="72.4969731"></rect>
                                        <rect id="Rectangle-279-Copy-34" fill="#EF7201" x="49.6955261" y="0" width="0.715706405" height="72.4969731"></rect>
                                        <rect id="Rectangle-279-Copy-106" fill="#EF7201" x="100.749685" y="0" width="0.715706405" height="72.4969731"></rect>
                                        <rect id="Rectangle-279-Copy-17" fill="#FFFEFC" x="37.6867647" y="0" width="0.715706405" height="72.4969731"></rect>
                                        <rect id="Rectangle-279-Copy-107" fill="#FFFEFC" x="88.7633884" y="0" width="0.715706405" height="72.4969731"></rect>
                                    </g>
                                </g>
                            </g>
                        </g>
                        <path d="M10.3658037,6.89505882 L15.4848626,6.89505882 L15.4848626,16.1929412 L15.6241567,16.1929412 L22.3799214,6.89505882 L28.0213332,6.89505882 L21.1610979,15.9491765 L29.2749802,29.6 L23.668392,29.6 L18.1314508,20.0235294 L15.4848626,23.5058824 L15.4848626,29.6 L10.3658037,29.6 L10.3658037,6.89505882 Z" id="K" fill="#FFFEFC" sketch:type="MSShapeGroup"></path>
                    </g>
                </g>
            </g>
        </g>
    </g>
</svg>